<svg width="800" height="1529" viewBox="0 0 800 1529" xmlns="http://www.w3.org/2000/svg">
<defs>
<style>
@font-face{}
text{font-family:'Courier New',Courier,monospace}

/* ═══ MATRIX RAIN ═══ */
.mc{font-size:13px;font-weight:700}
.ra{animation:rn 2.8s linear infinite 0.0s}
.rb{animation:rn 2.2s linear infinite 0.4s}
.rc{animation:rn 3.1s linear infinite 0.8s}
.rd{animation:rn 2.5s linear infinite 1.2s}
.re{animation:rn 2.9s linear infinite 0.2s}
.rf{animation:rn 2.4s linear infinite 0.6s}
.rg{animation:rn 3.2s linear infinite 1.0s}
.rh{animation:rn 2.7s linear infinite 1.4s}
.ri{animation:rn 2.3s linear infinite 0.3s}
.rj{animation:rn 3.0s linear infinite 0.7s}
.rk{animation:rn 2.6s linear infinite 1.1s}
.rl{animation:rn 2.1s linear infinite 0.5s}
.rm{animation:rn 3.3s linear infinite 0.9s}
.rn2{animation:rn 2.8s linear infinite 1.3s}
.ro{animation:rn 2.4s linear infinite 0.1s}
.rp{animation:rn 3.0s linear infinite 0.6s}
.rq{animation:rn 2.2s linear infinite 1.5s}
.rr{animation:rn 2.9s linear infinite 0.4s}
.rs{animation:rn 2.6s linear infinite 0.8s}
.rt{animation:rn 3.1s linear infinite 1.2s}
.ru{animation:rn 2.3s linear infinite 0.2s}
.rv{animation:rn 2.8s linear infinite 0.7s}
.rw{animation:rn 3.2s linear infinite 1.0s}
.rx{animation:rn 2.5s linear infinite 0.3s}
.ry{animation:rn 2.1s linear infinite 1.4s}
.rz{animation:rn 3.0s linear infinite 0.5s}
@keyframes rn{
  0%  {transform:translateY(-20px);opacity:0}
  6%  {opacity:1}
  80% {opacity:.85}
  100%{transform:translateY(155px);opacity:0}
}

/* ═══ GLITCH ═══ */
.gn{font-size:32px;font-weight:700;fill:#00F7FF;animation:ga 5s infinite}
.g1{font-size:32px;font-weight:700;fill:#ff0077;animation:g1a 5s infinite;clip-path:inset(0 0 60% 0)}
.g2{font-size:32px;font-weight:700;fill:#00ff88;animation:g2a 5s infinite;clip-path:inset(60% 0 0 0)}
@keyframes ga {0%,88%,100%{filter:none}90%{filter:drop-shadow(-4px 0 #ff0077) drop-shadow(4px 0 #00ff88)}}
@keyframes g1a{0%,88%,100%{transform:translate(0,0)}90%{transform:translate(-4px,1px)}94%{transform:translate(4px,-1px)}}
@keyframes g2a{0%,88%,100%{transform:translate(0,0)}91%{transform:translate(3px,-2px)}95%{transform:translate(-3px,1px)}}

/* ═══ SCAN LINE ═══ */
.scl{animation:scn 3s linear infinite}
@keyframes scn{0%{transform:translateX(-100px)}100%{transform:translateX(900px)}}

/* ═══ TYPING ═══ */
.ty1{animation:ty1a 24s infinite}
.ty2{animation:ty2a 24s infinite}
.ty3{animation:ty3a 24s infinite}
.ty4{animation:ty4a 24s infinite}
.ty5{animation:ty5a 24s infinite}
.ty6{animation:ty6a 24s infinite}
.cur{animation:blink .65s step-end infinite}
@keyframes blink{50%{opacity:0}}
@keyframes ty1a{0%,15%{opacity:1}17%,100%{opacity:0}}
@keyframes ty2a{0%,16%{opacity:0}18%,33%{opacity:1}35%,100%{opacity:0}}
@keyframes ty3a{0%,34%{opacity:0}36%,51%{opacity:1}53%,100%{opacity:0}}
@keyframes ty4a{0%,52%{opacity:0}54%,69%{opacity:1}71%,100%{opacity:0}}
@keyframes ty5a{0%,70%{opacity:0}72%,87%{opacity:1}89%,100%{opacity:0}}
@keyframes ty6a{0%,88%{opacity:0}90%,100%{opacity:1}}

/* ═══ PILL SHIMMER ═══ */
.shim{animation:shm 2.5s linear infinite}
@keyframes shm{0%{transform:translateX(-60px)}100%{transform:translateX(200px)}}

/* ═══ LIVE DOT ═══ */
.lv{animation:lvp 1.4s ease-in-out infinite}
@keyframes lvp{0%,100%{opacity:1}50%{opacity:.1}}

/* ═══ NODE GLOW ═══ */
.nc{animation:glc 2.4s ease-in-out infinite 0.0s}
.np{animation:glc 2.4s ease-in-out infinite 0.5s}
.nr{animation:glc 2.4s ease-in-out infinite 1.0s}
.nb{animation:glc 2.4s ease-in-out infinite 1.5s}
.no{animation:glc 2.4s ease-in-out infinite 0.3s}
.ng{animation:glc 2.4s ease-in-out infinite 0.8s}
.ny{animation:glc 2.4s ease-in-out infinite 1.3s}
@keyframes glc{0%,100%{filter:drop-shadow(0 0 2px currentColor)}50%{filter:drop-shadow(0 0 9px currentColor)}}

/* ═══ EDGES ═══ */
.ed {stroke-dasharray:7 3;animation:eda 1.1s linear infinite}
.ed2{stroke-dasharray:7 3;animation:eda 1.3s linear infinite .4s}
@keyframes eda{to{stroke-dashoffset:-20}}

/* ═══ DATA PACKETS ═══ */
.pk1 {animation:pk1m  2s linear infinite 0.0s}
.pk2 {animation:pk2m  2s linear infinite 0.5s}
.pk3 {animation:pk3m  2s linear infinite 1.0s}
.pk4 {animation:pk4m  2s linear infinite 0.3s}
.pk5 {animation:pk5m  2s linear infinite 0.8s}
.pk6 {animation:pk6m  2s linear infinite 1.3s}
.pk7 {animation:pk7m  2s linear infinite 0.6s}
.pk8 {animation:pk8m  2s linear infinite 1.1s}
.pk9 {animation:pk9m  2s linear infinite 0.4s}

/* DevOps pipeline packet coords */
@keyframes pk1m{0%{transform:translate(100px,539px);opacity:1}100%{transform:translate(144px,539px);opacity:0}}
@keyframes pk2m{0%{transform:translate(228px,535px);opacity:1}100%{transform:translate(282px,521px);opacity:0}}
@keyframes pk3m{0%{transform:translate(228px,543px);opacity:1}100%{transform:translate(282px,561px);opacity:0}}
@keyframes pk4m{0%{transform:translate(374px,521px);opacity:1}100%{transform:translate(432px,521px);opacity:0}}
@keyframes pk5m{0%{transform:translate(374px,561px);opacity:1}100%{transform:translate(432px,561px);opacity:0}}
@keyframes pk6m{0%{transform:translate(516px,521px);opacity:1}100%{transform:translate(574px,521px);opacity:0}}
@keyframes pk7m{0%{transform:translate(516px,561px);opacity:1}100%{transform:translate(574px,561px);opacity:0}}
@keyframes pk8m{0%{transform:translate(654px,528px);opacity:1}100%{transform:translate(714px,535px);opacity:0}}
@keyframes pk9m{0%{transform:translate(654px,552px);opacity:1}100%{transform:translate(714px,545px);opacity:0}}

/* ═══ TERMINAL LINES FADE IN ═══ */
.tl1{animation:tfi .4s ease forwards 0.3s;opacity:0}
.tl2{animation:tfi .4s ease forwards 0.9s;opacity:0}
.tl3{animation:tfi .4s ease forwards 1.5s;opacity:0}
.tl4{animation:tfi .4s ease forwards 2.1s;opacity:0}
.tl5{animation:tfi .4s ease forwards 2.7s;opacity:0}
.tl6{animation:tfi .4s ease forwards 3.3s;opacity:0}
.tl7{animation:tfi .4s ease forwards 3.9s;opacity:0}
.tl8{animation:tfi .4s ease forwards 4.5s;opacity:0}
.tl9{animation:tfi .4s ease forwards 5.1s;opacity:0}
.tl10{animation:tfi .4s ease forwards 5.7s;opacity:0}
@keyframes tfi{to{opacity:1}}

/* ═══ SKILL BARS ═══ */
.sf1{animation:sf1a 1.8s ease forwards 0.2s}
.sf2{animation:sf2a 1.8s ease forwards 0.4s}
.sf3{animation:sf3a 1.8s ease forwards 0.6s}
.sf4{animation:sf4a 1.8s ease forwards 0.8s}
.sf5{animation:sf5a 1.8s ease forwards 1.0s}
.sf6{animation:sf6a 1.8s ease forwards 1.2s}
.sf7{animation:sf7a 1.8s ease forwards 1.4s}
.sf8{animation:sf8a 1.8s ease forwards 1.6s}
.sf9{animation:sf9a 1.8s ease forwards 1.8s}
.sf10{animation:sf10a 1.8s ease forwards 2.0s}
.sf11{animation:sf11a 1.8s ease forwards 2.2s}
.sf12{animation:sf12a 1.8s ease forwards 2.4s}
.sf13{animation:sf13a 1.8s ease forwards 2.6s}
.sf14{animation:sf14a 1.8s ease forwards 2.8s}
.sf15{animation:sf15a 1.8s ease forwards 3.0s}
@keyframes sf1a {0%{width:0}100%{width:186px}}
@keyframes sf2a {0%{width:0}100%{width:178px}}
@keyframes sf3a {0%{width:0}100%{width:182px}}
@keyframes sf4a {0%{width:0}100%{width:163px}}
@keyframes sf5a {0%{width:0}100%{width:177px}}
@keyframes sf6a {0%{width:0}100%{width:173px}}
@keyframes sf7a {0%{width:0}100%{width:169px}}
@keyframes sf8a {0%{width:0}100%{width:167px}}
@keyframes sf9a {0%{width:0}100%{width:163px}}
@keyframes sf10a{0%{width:0}100%{width:173px}}
@keyframes sf11a{0%{width:0}100%{width:169px}}
@keyframes sf12a{0%{width:0}100%{width:157px}}
@keyframes sf13a{0%{width:0}100%{width:163px}}
@keyframes sf14a{0%{width:0}100%{width:154px}}
@keyframes sf15a{0%{width:0}100%{width:167px}}

/* ═══ STAT COUNTERS ═══ */
.st-num{animation:stfa 1s ease forwards 0.5s;opacity:0}
@keyframes stfa{to{opacity:1}}
</style>

<!-- MARKERS -->
<marker id="ac" markerWidth="6" markerHeight="6" refX="5" refY="3" orient="auto"><path d="M0,0 L0,6 L6,3z" fill="#00F7FF"/></marker>
<marker id="ap" markerWidth="6" markerHeight="6" refX="5" refY="3" orient="auto"><path d="M0,0 L0,6 L6,3z" fill="#a78bfa"/></marker>
<marker id="ar" markerWidth="6" markerHeight="6" refX="5" refY="3" orient="auto"><path d="M0,0 L0,6 L6,3z" fill="#ff8888"/></marker>
<marker id="ab" markerWidth="6" markerHeight="6" refX="5" refY="3" orient="auto"><path d="M0,0 L0,6 L6,3z" fill="#2496ed"/></marker>
<marker id="ab2" markerWidth="6" markerHeight="6" refX="5" refY="3" orient="auto"><path d="M0,0 L0,6 L6,3z" fill="#326ce5"/></marker>
<marker id="ao" markerWidth="6" markerHeight="6" refX="5" refY="3" orient="auto"><path d="M0,0 L0,6 L6,3z" fill="#f46800"/></marker>
<marker id="ar2" markerWidth="6" markerHeight="6" refX="5" refY="3" orient="auto"><path d="M0,0 L0,6 L6,3z" fill="#ff6b6b"/></marker>
<marker id="apu" markerWidth="6" markerHeight="6" refX="5" refY="3" orient="auto"><path d="M0,0 L0,6 L6,3z" fill="#c084fc"/></marker>
<clipPath id="mcclip"><rect x="0" y="0" width="800" height="160"/></clipPath>
<linearGradient id="scgr" x1="0" x2="1" y1="0" y2="0">
  <stop offset="0" stop-color="#00F7FF" stop-opacity="0"/>
  <stop offset="0.5" stop-color="#00F7FF" stop-opacity="0.5"/>
  <stop offset="1" stop-color="#00F7FF" stop-opacity="0"/>
</linearGradient>
</defs>

<!-- ═══════════════════════════════════════════════════════
     BACKGROUND
════════════════════════════════════════════════════════ -->
<rect width="800" height="1529" fill="#050a0f"/>

<!-- ═══ MATRIX RAIN ═══ -->
<g clip-path="url(#mcclip)" opacity=".85">
<text class="mc ra" x="8" y="0" fill="#00F7FF">ア</text>
<text class="mc rn2" x="8" y="0" fill="#005577" style="animation-delay:0.00s">ク</text>
<text class="mc rb" x="28" y="0" fill="#00bcd4">イ</text>
<text class="mc ro" x="28" y="0" fill="#00F7FF" style="animation-delay:0.11s">ケ</text>
<text class="mc rc" x="48" y="0" fill="#005577">ウ</text>
<text class="mc rp" x="48" y="0" fill="#00bcd4" style="animation-delay:0.22s">コ</text>
<text class="mc rd" x="68" y="0" fill="#00F7FF">エ</text>
<text class="mc rq" x="68" y="0" fill="#00F7FF" style="animation-delay:0.33s">サ</text>
<text class="mc re" x="88" y="0" fill="#00bcd4">オ</text>
<text class="mc rr" x="88" y="0" fill="#00bcd4" style="animation-delay:0.44s">シ</text>
<text class="mc rf" x="108" y="0" fill="#00F7FF">カ</text>
<text class="mc rs" x="108" y="0" fill="#005577" style="animation-delay:0.55s">ス</text>
<text class="mc rg" x="128" y="0" fill="#00bcd4">キ</text>
<text class="mc rt" x="128" y="0" fill="#00F7FF" style="animation-delay:0.66s">セ</text>
<text class="mc rh" x="148" y="0" fill="#005577">ク</text>
<text class="mc ru" x="148" y="0" fill="#00bcd4" style="animation-delay:0.77s">ソ</text>
<text class="mc ri" x="168" y="0" fill="#00F7FF">ケ</text>
<text class="mc rv" x="168" y="0" fill="#00F7FF" style="animation-delay:0.88s">A</text>
<text class="mc rj" x="188" y="0" fill="#00bcd4">コ</text>
<text class="mc rw" x="188" y="0" fill="#00bcd4" style="animation-delay:0.99s">B</text>
<text class="mc rk" x="208" y="0" fill="#00F7FF">サ</text>
<text class="mc rx" x="208" y="0" fill="#005577" style="animation-delay:1.10s">C</text>
<text class="mc rl" x="228" y="0" fill="#00bcd4">シ</text>
<text class="mc ry" x="228" y="0" fill="#00F7FF" style="animation-delay:1.21s">D</text>
<text class="mc rm" x="248" y="0" fill="#005577">ス</text>
<text class="mc rz" x="248" y="0" fill="#00bcd4" style="animation-delay:1.32s">E</text>
<text class="mc rn2" x="268" y="0" fill="#00F7FF">セ</text>
<text class="mc ra" x="268" y="0" fill="#00F7FF" style="animation-delay:1.43s">F</text>
<text class="mc ro" x="530" y="0" fill="#00bcd4">ソ</text>
<text class="mc rb" x="530" y="0" fill="#00bcd4" style="animation-delay:1.54s">G</text>
<text class="mc rp" x="550" y="0" fill="#00F7FF">A</text>
<text class="mc rc" x="550" y="0" fill="#005577" style="animation-delay:0.05s">H</text>
<text class="mc rq" x="570" y="0" fill="#00bcd4">B</text>
<text class="mc rd" x="570" y="0" fill="#00F7FF" style="animation-delay:0.16s">K</text>
<text class="mc rr" x="590" y="0" fill="#005577">C</text>
<text class="mc re" x="590" y="0" fill="#00bcd4" style="animation-delay:0.27s">M</text>
<text class="mc rs" x="610" y="0" fill="#00F7FF">D</text>
<text class="mc rf" x="610" y="0" fill="#00F7FF" style="animation-delay:0.38s">N</text>
<text class="mc rt" x="630" y="0" fill="#00bcd4">E</text>
<text class="mc rg" x="630" y="0" fill="#00bcd4" style="animation-delay:0.49s">0</text>
<text class="mc ru" x="650" y="0" fill="#00F7FF">F</text>
<text class="mc rh" x="650" y="0" fill="#005577" style="animation-delay:0.60s">1</text>
<text class="mc rv" x="670" y="0" fill="#00bcd4">G</text>
<text class="mc ri" x="670" y="0" fill="#00F7FF" style="animation-delay:0.71s">2</text>
<text class="mc rw" x="690" y="0" fill="#005577">H</text>
<text class="mc rj" x="690" y="0" fill="#00bcd4" style="animation-delay:0.82s">P</text>
<text class="mc rx" x="710" y="0" fill="#00F7FF">K</text>
<text class="mc rk" x="710" y="0" fill="#00F7FF" style="animation-delay:0.93s">S</text>
<text class="mc ry" x="730" y="0" fill="#00bcd4">M</text>
<text class="mc rl" x="730" y="0" fill="#00bcd4" style="animation-delay:1.04s">タ</text>
<text class="mc rz" x="750" y="0" fill="#00F7FF">N</text>
<text class="mc rm" x="750" y="0" fill="#005577" style="animation-delay:1.15s">チ</text>
<text class="mc ra" x="770" y="0" fill="#00bcd4">0</text>
<text class="mc rn2" x="770" y="0" fill="#00F7FF" style="animation-delay:1.26s">ツ</text>
<text class="mc rb" x="790" y="0" fill="#005577">1</text>
<text class="mc ro" x="790" y="0" fill="#00bcd4" style="animation-delay:1.37s">テ</text>
</g>
<rect class="scl" y="0" width="80" height="160" fill="url(#scgr)" opacity=".18"/>

<!-- ═══ HERO AREA ═══ -->
<rect x="0" y="155" width="800" height="110" fill="#0a1520" opacity=".97"/>
<rect x="0" y="155" width="800" height="2" fill="#00F7FF" opacity=".15"/>
<rect x="0" y="155" width="800" height="1" fill="url(#scgr)" opacity=".5"/>

<!-- Glitch Name -->
<text class="g1" x="400" y="206" text-anchor="middle">SHOXZOD QALANDAROV</text>
<text class="g2" x="400" y="206" text-anchor="middle">SHOXZOD QALANDAROV</text>
<text class="gn"  x="400" y="206" text-anchor="middle">SHOXZOD QALANDAROV</text>

<text x="400" y="224" text-anchor="middle" fill="#1a4a6a" font-size="10" letter-spacing="4">SYSTEM ADMINISTRATOR  ·  DEVOPS ENGINEER</text>

<!-- Typing lines -->
<text class="ty1" x="400" y="243" text-anchor="middle" fill="#00bcd4" font-size="11">CI/CD Automation Expert<tspan class="cur" fill="#00F7FF"> ▋</tspan></text>
<text class="ty2" x="400" y="243" text-anchor="middle" fill="#00bcd4" font-size="11">Zero-Downtime Specialist<tspan class="cur" fill="#00F7FF"> ▋</tspan></text>
<text class="ty3" x="400" y="243" text-anchor="middle" fill="#00bcd4" font-size="11">Linux Infrastructure Pro<tspan class="cur" fill="#00F7FF"> ▋</tspan></text>
<text class="ty4" x="400" y="243" text-anchor="middle" fill="#00bcd4" font-size="11">Mikrotik Network Engineer<tspan class="cur" fill="#00F7FF"> ▋</tspan></text>
<text class="ty5" x="400" y="243" text-anchor="middle" fill="#00bcd4" font-size="11">Kubernetes &amp; Docker Expert<tspan class="cur" fill="#00F7FF"> ▋</tspan></text>
<text class="ty6" x="400" y="243" text-anchor="middle" fill="#00bcd4" font-size="11">SIEM/DLP Security Specialist<tspan class="cur" fill="#00F7FF"> ▋</tspan></text>

<!-- Status Pills -->
<rect x="102" y="255" width="142" height="19" rx="9" fill="#0d1f2d" stroke="#00ff88" stroke-width="1"/>
<clipPath id="p1clip"><rect x="102" y="255" width="142" height="19" rx="9"/></clipPath>
<rect class="shim" x="102" y="255" width="40" height="19" fill="url(#scgr)" opacity=".25" clip-path="url(#p1clip)"/>
<circle cx="116" cy="264" r="3.5" fill="#00ff88" class="lv"/>
<text x="222" y="268" text-anchor="middle" fill="#00ff88" font-size="9" font-weight="700">Available for hire</text>

<rect x="252" y="255" width="158" height="19" rx="9" fill="#0d1f2d" stroke="#00F7FF" stroke-width="1"/>
<clipPath id="p2clip"><rect x="252" y="255" width="158" height="19" rx="9"/></clipPath>
<rect class="shim" x="252" y="255" width="40" height="19" fill="url(#scgr)" opacity=".2" clip-path="url(#p2clip)"/>
<text x="331" y="268" text-anchor="middle" fill="#00F7FF" font-size="9">Raqamli Avlod · 2023–Present</text>

<rect x="418" y="255" width="188" height="19" rx="9" fill="#0d1f2d" stroke="#bf5af2" stroke-width="1"/>
<clipPath id="p3clip"><rect x="418" y="255" width="188" height="19" rx="9"/></clipPath>
<rect class="shim" x="418" y="255" width="40" height="19" fill="url(#scgr)" opacity=".2" clip-path="url(#p3clip)"/>
<text x="512" y="268" text-anchor="middle" fill="#bf5af2" font-size="9">Information Security · 2021–2025</text>

<line x1="20" y1="285" x2="780" y2="285" stroke="#00F7FF" stroke-width=".5" opacity=".15"/>
<text x="20" y="303" fill="#00F7FF" font-size="9" font-weight="700" letter-spacing="3">TERMINAL</text>
<line x1="72" y1="300" x2="775" y2="300" stroke="#00F7FF18" stroke-width=".8"/>


<rect x="20" y="309" width="760" height="156" rx="8" fill="#030d13" stroke="#00F7FF33" stroke-width="1"/>
<rect x="20" y="309" width="760" height="24" rx="8" fill="#081520"/>
<rect x="20" y="321" width="760" height="12" fill="#081520"/>
<circle cx="36"  cy="321" r="5" fill="#ff5f57"/>
<circle cx="53"  cy="321" r="5" fill="#febc2e"/>
<circle cx="70"  cy="321" r="5" fill="#28c840"/>
<text x="84" y="325" fill="#3a6a8a" font-size="9">shoxzod@devops-station:~$</text>

<text class="tl1" x="32" y="345" fill="#00ff88" font-size="9">shoxzod@devops:~$<tspan fill="#7ec8e3"> cat whoami.json</tspan></text>
<text class="tl2" x="44" y="358" fill="#a8c8a8" font-size="8">{ "name": "Shoxzod Qalandarov", "role": "SysAdmin/DevOps", "exp": "2023-present" }</text>
<text class="tl3" x="32" y="371" fill="#00ff88" font-size="9">shoxzod@devops:~$<tspan fill="#7ec8e3"> systemctl status nginx grafana prometheus</tspan></text>
<text class="tl4" x="44" y="383" fill="#00ff88" font-size="8">● nginx.service Active: active (running)   ● grafana.service Active: active (running)</text>
<text class="tl5" x="32" y="396" fill="#00ff88" font-size="9">shoxzod@devops:~$<tspan fill="#7ec8e3"> kubectl get nodes</tspan></text>
<text class="tl6" x="44" y="408" fill="#a8c8a8" font-size="8">master-node  Ready  control-plane  30d  v1.28.0    worker-01  Ready  none  30d  v1.28.0</text>
<text class="tl7" x="32" y="421" fill="#00ff88" font-size="9">shoxzod@devops:~$<tspan fill="#7ec8e3"> terraform apply -auto-approve</tspan></text>
<text class="tl8" x="44" y="433" fill="#00ff88" font-size="8">Apply complete! Resources: 4 added, 1 changed, 0 destroyed.</text>
<text class="tl9" x="32" y="446" fill="#00ff88" font-size="9">shoxzod@devops:~$<tspan fill="#7ec8e3"> ansible-playbook deploy.yml</tspan></text>
<text class="tl10" x="44" y="458" fill="#00ff88" font-size="8">PLAY RECAP: ok=18  changed=6  unreachable=0  failed=0<tspan fill="#00F7FF">  ■</tspan></text>

<line x1="20" y1="477" x2="780" y2="477" stroke="#00F7FF" stroke-width=".5" opacity=".15"/>
<text x="20" y="495" fill="#00F7FF" font-size="9" font-weight="700" letter-spacing="3">DEVOPS ARCHITECTURE</text>
<line x1="149" y1="492" x2="775" y2="492" stroke="#00F7FF18" stroke-width=".8"/>
<circle cx="770" cy="489" r="4" fill="#00ff88" class="lv"/>

<line class="ed" x1="100" y1="539" x2="144" y2="539" stroke="#00F7FF" stroke-width="1.4" marker-end="url(#ac)"/>
<line class="ed" x1="228" y1="531" x2="282" y2="521" stroke="#a78bfa" stroke-width="1.4" marker-end="url(#ap)"/>
<line class="ed2" x1="228" y1="547" x2="282" y2="561" stroke="#ff8888" stroke-width="1.4" marker-end="url(#ar)"/>
<line class="ed" x1="374" y1="521" x2="432" y2="521" stroke="#2496ed" stroke-width="1.4" marker-end="url(#ab)"/>
<line class="ed2" x1="374" y1="561" x2="432" y2="561" stroke="#326ce5" stroke-width="1.4" marker-end="url(#ab2)"/>
<line class="ed" x1="516" y1="521" x2="574" y2="521" stroke="#ff6b6b" stroke-width="1.4" marker-end="url(#ar2)"/>
<line class="ed2" x1="516" y1="561" x2="574" y2="561" stroke="#c084fc" stroke-width="1.4" marker-end="url(#apu)"/>
<line class="ed" x1="654" y1="521" x2="714" y2="533" stroke="#f46800" stroke-width="1.4" marker-end="url(#ao)"/>
<line class="ed2" x1="654" y1="561" x2="714" y2="547" stroke="#f46800" stroke-width="1.4" marker-end="url(#ao)"/>
<circle class="pk1" r="3.5" fill="#00F7FF"/>
<circle class="pk2" r="3.5" fill="#a78bfa"/>
<circle class="pk3" r="3.5" fill="#ff8888"/>
<circle class="pk4" r="3.5" fill="#2496ed"/>
<circle class="pk5" r="3.5" fill="#326ce5"/>
<circle class="pk6" r="3.5" fill="#ff6b6b"/>
<circle class="pk7" r="3.5" fill="#c084fc"/>
<circle class="pk8" r="3.5" fill="#f46800"/>
<circle class="pk9" r="3.5" fill="#f46800"/>
<g class="nc" color="#00F7FF">
  <rect x="20" y="523" width="80" height="32" rx="5" fill="#071525" stroke="#00F7FF" stroke-width="1.4"/>
  <text x="60" y="543" text-anchor="middle" fill="#00F7FF" font-size="9" font-weight="700">Dev</text>
</g>
<g class="np" color="#7c3aed">
  <rect x="144" y="523" width="84" height="32" rx="5" fill="#0d0020" stroke="#7c3aed" stroke-width="1.4"/>
  <text x="186" y="543" text-anchor="middle" fill="#a78bfa" font-size="9" font-weight="700">GitHub</text>
</g>
<g class="np" color="#bf5af2">
  <rect x="282" y="507" width="92" height="28" rx="5" fill="#0d0020" stroke="#bf5af2" stroke-width="1.4"/>
  <text x="328" y="525" text-anchor="middle" fill="#bf5af2" font-size="9" font-weight="700">GH Actions</text>
</g>
<g class="nr" color="#cc3333">
  <rect x="282" y="547" width="92" height="28" rx="5" fill="#1a0000" stroke="#cc3333" stroke-width="1.4"/>
  <text x="328" y="565" text-anchor="middle" fill="#ff8888" font-size="9" font-weight="700">Jenkins</text>
</g>
<g class="nb" color="#2496ed">
  <rect x="432" y="507" width="84" height="28" rx="5" fill="#001020" stroke="#2496ed" stroke-width="1.4"/>
  <text x="474" y="525" text-anchor="middle" fill="#6bbaff" font-size="9" font-weight="700">Docker</text>
</g>
<g class="nb" color="#326ce5">
  <rect x="432" y="547" width="84" height="28" rx="5" fill="#001020" stroke="#326ce5" stroke-width="1.4"/>
  <text x="474" y="565" text-anchor="middle" fill="#6ba3ff" font-size="9" font-weight="700">K8s</text>
</g>
<g class="nr" color="#cc0000">
  <rect x="574" y="507" width="80" height="28" rx="5" fill="#1a0000" stroke="#cc0000" stroke-width="1.4"/>
  <text x="614" y="525" text-anchor="middle" fill="#ff6b6b" font-size="9" font-weight="700">Ansible</text>
</g>
<g class="np" color="#7b42bc">
  <rect x="574" y="547" width="80" height="28" rx="5" fill="#0d0020" stroke="#7b42bc" stroke-width="1.4"/>
  <text x="614" y="565" text-anchor="middle" fill="#c084fc" font-size="9" font-weight="700">Terraform</text>
</g>
<g class="no" color="#f46800">
  <rect x="714" y="514" width="78" height="58" rx="5" fill="#1a0800" stroke="#f46800" stroke-width="1.4"/>
  <text x="753" y="528" text-anchor="middle" fill="#f46800"  font-size="8" font-weight="700">Monitor</text>
  <text x="753" y="540" text-anchor="middle" fill="#cc5500"  font-size="7">Grafana</text>
  <text x="753" y="551" text-anchor="middle" fill="#cc5500"  font-size="7">Prometheus</text>
  <text x="753" y="562" text-anchor="middle" fill="#cc5500"  font-size="7">Zabbix</text>
</g>
<line x1="20" y1="599" x2="780" y2="599" stroke="#00F7FF" stroke-width=".5" opacity=".15"/>
<text x="20" y="617" fill="#00F7FF" font-size="9" font-weight="700" letter-spacing="3">SKILL LEVELS</text>
<line x1="100" y1="614" x2="775" y2="614" stroke="#00F7FF18" stroke-width=".8"/>

<rect x="20" y="625" width="248" height="38" rx="6" fill="#071525" stroke="#00F7FF18" stroke-width="1"/>
<text x="30" y="639" fill="#00F7FF" font-size="9" font-weight="700">Linux Admin</text>
<rect x="30" y="645" width="195" height="6" rx="3" fill="#0a1a26"/>
<rect class="sf1" x="30" y="645" height="6" rx="3" fill="#00F7FF" width="0"/>
<text x="230" y="652" fill="#00F7FF" font-size="8">98%</text>
<rect x="278" y="625" width="248" height="38" rx="6" fill="#071525" stroke="#00F7FF18" stroke-width="1"/>
<text x="288" y="639" fill="#00bcd4" font-size="9" font-weight="700">Nginx/Apache</text>
<rect x="288" y="645" width="195" height="6" rx="3" fill="#0a1a26"/>
<rect class="sf2" x="288" y="645" height="6" rx="3" fill="#00bcd4" width="0"/>
<text x="488" y="652" fill="#00bcd4" font-size="8">93%</text>
<rect x="536" y="625" width="248" height="38" rx="6" fill="#071525" stroke="#00F7FF18" stroke-width="1"/>
<text x="546" y="639" fill="#2496ed" font-size="9" font-weight="700">Docker</text>
<rect x="546" y="645" width="195" height="6" rx="3" fill="#0a1a26"/>
<rect class="sf3" x="546" y="645" height="6" rx="3" fill="#2496ed" width="0"/>
<text x="746" y="652" fill="#2496ed" font-size="8">95%</text>
<rect x="20" y="671" width="248" height="38" rx="6" fill="#071525" stroke="#00F7FF18" stroke-width="1"/>
<text x="30" y="685" fill="#326ce5" font-size="9" font-weight="700">Kubernetes</text>
<rect x="30" y="691" width="195" height="6" rx="3" fill="#0a1a26"/>
<rect class="sf4" x="30" y="691" height="6" rx="3" fill="#326ce5" width="0"/>
<text x="230" y="698" fill="#326ce5" font-size="8">85%</text>
<rect x="278" y="671" width="248" height="38" rx="6" fill="#071525" stroke="#00F7FF18" stroke-width="1"/>
<text x="288" y="685" fill="#bf5af2" font-size="9" font-weight="700">CI/CD Pipelines</text>
<rect x="288" y="691" width="195" height="6" rx="3" fill="#0a1a26"/>
<rect class="sf5" x="288" y="691" height="6" rx="3" fill="#bf5af2" width="0"/>
<text x="488" y="698" fill="#bf5af2" font-size="8">92%</text>
<rect x="536" y="671" width="248" height="38" rx="6" fill="#071525" stroke="#00F7FF18" stroke-width="1"/>
<text x="546" y="685" fill="#a855f7" font-size="9" font-weight="700">GitHub Actions</text>
<rect x="546" y="691" width="195" height="6" rx="3" fill="#0a1a26"/>
<rect class="sf6" x="546" y="691" height="6" rx="3" fill="#a855f7" width="0"/>
<text x="746" y="698" fill="#a855f7" font-size="8">90%</text>
<rect x="20" y="717" width="248" height="38" rx="6" fill="#071525" stroke="#00F7FF18" stroke-width="1"/>
<text x="30" y="731" fill="#f46800" font-size="9" font-weight="700">Grafana</text>
<rect x="30" y="737" width="195" height="6" rx="3" fill="#0a1a26"/>
<rect class="sf7" x="30" y="737" height="6" rx="3" fill="#f46800" width="0"/>
<text x="230" y="744" fill="#f46800" font-size="8">88%</text>
<rect x="278" y="717" width="248" height="38" rx="6" fill="#071525" stroke="#00F7FF18" stroke-width="1"/>
<text x="288" y="731" fill="#fb923c" font-size="9" font-weight="700">Prometheus</text>
<rect x="288" y="737" width="195" height="6" rx="3" fill="#0a1a26"/>
<rect class="sf8" x="288" y="737" height="6" rx="3" fill="#fb923c" width="0"/>
<text x="488" y="744" fill="#fb923c" font-size="8">87%</text>
<rect x="536" y="717" width="248" height="38" rx="6" fill="#071525" stroke="#00F7FF18" stroke-width="1"/>
<text x="546" y="731" fill="#ff6b6b" font-size="9" font-weight="700">Zabbix</text>
<rect x="546" y="737" width="195" height="6" rx="3" fill="#0a1a26"/>
<rect class="sf9" x="546" y="737" height="6" rx="3" fill="#ff6b6b" width="0"/>
<text x="746" y="744" fill="#ff6b6b" font-size="8">85%</text>
<rect x="20" y="763" width="248" height="38" rx="6" fill="#071525" stroke="#00F7FF18" stroke-width="1"/>
<text x="30" y="777" fill="#ffd60a" font-size="9" font-weight="700">Mikrotik</text>
<rect x="30" y="783" width="195" height="6" rx="3" fill="#0a1a26"/>
<rect class="sf10" x="30" y="783" height="6" rx="3" fill="#ffd60a" width="0"/>
<text x="230" y="790" fill="#ffd60a" font-size="8">90%</text>
<rect x="278" y="763" width="248" height="38" rx="6" fill="#071525" stroke="#00F7FF18" stroke-width="1"/>
<text x="288" y="777" fill="#00ff88" font-size="9" font-weight="700">Proxmox/KVM</text>
<rect x="288" y="783" width="195" height="6" rx="3" fill="#0a1a26"/>
<rect class="sf11" x="288" y="783" height="6" rx="3" fill="#00ff88" width="0"/>
<text x="488" y="790" fill="#00ff88" font-size="8">88%</text>
<rect x="536" y="763" width="248" height="38" rx="6" fill="#071525" stroke="#00F7FF18" stroke-width="1"/>
<text x="546" y="777" fill="#7b42bc" font-size="9" font-weight="700">Terraform</text>
<rect x="546" y="783" width="195" height="6" rx="3" fill="#0a1a26"/>
<rect class="sf12" x="546" y="783" height="6" rx="3" fill="#7b42bc" width="0"/>
<text x="746" y="790" fill="#7b42bc" font-size="8">82%</text>
<rect x="20" y="809" width="248" height="38" rx="6" fill="#071525" stroke="#00F7FF18" stroke-width="1"/>
<text x="30" y="823" fill="#ee0000" font-size="9" font-weight="700">Ansible</text>
<rect x="30" y="829" width="195" height="6" rx="3" fill="#0a1a26"/>
<rect class="sf13" x="30" y="829" height="6" rx="3" fill="#ee0000" width="0"/>
<text x="230" y="836" fill="#ee0000" font-size="8">85%</text>
<rect x="278" y="809" width="248" height="38" rx="6" fill="#071525" stroke="#00F7FF18" stroke-width="1"/>
<text x="288" y="823" fill="#3776AB" font-size="9" font-weight="700">Python/Aiogram</text>
<rect x="288" y="829" width="195" height="6" rx="3" fill="#0a1a26"/>
<rect class="sf14" x="288" y="829" height="6" rx="3" fill="#3776AB" width="0"/>
<text x="488" y="836" fill="#3776AB" font-size="8">80%</text>
<rect x="536" y="809" width="248" height="38" rx="6" fill="#071525" stroke="#00F7FF18" stroke-width="1"/>
<text x="546" y="823" fill="#ff6b9d" font-size="9" font-weight="700">Firewall/VPN</text>
<rect x="546" y="829" width="195" height="6" rx="3" fill="#0a1a26"/>
<rect class="sf15" x="546" y="829" height="6" rx="3" fill="#ff6b9d" width="0"/>
<text x="746" y="836" fill="#ff6b9d" font-size="8">87%</text>
<line x1="20" y1="865" x2="780" y2="865" stroke="#00F7FF" stroke-width=".5" opacity=".15"/>
<text x="20" y="883" fill="#00F7FF" font-size="9" font-weight="700" letter-spacing="3">FULL TECH STACK</text>
<line x1="121" y1="880" x2="775" y2="880" stroke="#00F7FF18" stroke-width=".8"/>

<text x="20" y="893" fill="#6ba3ff99" font-size="8" font-weight="700" letter-spacing="2">Infrastructure</text>
<rect x="20" y="907" width="50" height="16" rx="4" fill="#071525" stroke="#6ba3ff44" stroke-width="1"/>
<text x="45" y="918" text-anchor="middle" fill="#6ba3ff" font-size="8">Linux</text>
<rect x="76" y="907" width="50" height="16" rx="4" fill="#071525" stroke="#6ba3ff44" stroke-width="1"/>
<text x="101" y="918" text-anchor="middle" fill="#6ba3ff" font-size="8">Nginx</text>
<rect x="132" y="907" width="56" height="16" rx="4" fill="#071525" stroke="#6ba3ff44" stroke-width="1"/>
<text x="160" y="918" text-anchor="middle" fill="#6ba3ff" font-size="8">Apache</text>
<rect x="194" y="907" width="80" height="16" rx="4" fill="#071525" stroke="#6ba3ff44" stroke-width="1"/>
<text x="234" y="918" text-anchor="middle" fill="#6ba3ff" font-size="8">PostgreSQL</text>
<rect x="280" y="907" width="50" height="16" rx="4" fill="#071525" stroke="#6ba3ff44" stroke-width="1"/>
<text x="305" y="918" text-anchor="middle" fill="#6ba3ff" font-size="8">MySQL</text>
<rect x="336" y="907" width="80" height="16" rx="4" fill="#071525" stroke="#6ba3ff44" stroke-width="1"/>
<text x="376" y="918" text-anchor="middle" fill="#6ba3ff" font-size="8">Proxmox VE</text>
<rect x="422" y="907" width="68" height="16" rx="4" fill="#071525" stroke="#6ba3ff44" stroke-width="1"/>
<text x="456" y="918" text-anchor="middle" fill="#6ba3ff" font-size="8">KVM/QEMU</text>
<rect x="496" y="907" width="104" height="16" rx="4" fill="#071525" stroke="#6ba3ff44" stroke-width="1"/>
<text x="548" y="918" text-anchor="middle" fill="#6ba3ff" font-size="8">Windows Server</text>
<text x="20" y="931" fill="#bf5af299" font-size="8" font-weight="700" letter-spacing="2">CI/CD &amp; Deploy</text>
<rect x="20" y="945" width="104" height="16" rx="4" fill="#071525" stroke="#bf5af244" stroke-width="1"/>
<text x="72" y="956" text-anchor="middle" fill="#bf5af2" font-size="8">GitHub Actions</text>
<rect x="130" y="945" width="62" height="16" rx="4" fill="#071525" stroke="#bf5af244" stroke-width="1"/>
<text x="161" y="956" text-anchor="middle" fill="#bf5af2" font-size="8">Jenkins</text>
<rect x="198" y="945" width="56" height="16" rx="4" fill="#071525" stroke="#bf5af244" stroke-width="1"/>
<text x="226" y="956" text-anchor="middle" fill="#bf5af2" font-size="8">Docker</text>
<rect x="260" y="945" width="104" height="16" rx="4" fill="#071525" stroke="#bf5af244" stroke-width="1"/>
<text x="312" y="956" text-anchor="middle" fill="#bf5af2" font-size="8">Docker Compose</text>
<rect x="370" y="945" width="80" height="16" rx="4" fill="#071525" stroke="#bf5af244" stroke-width="1"/>
<text x="410" y="956" text-anchor="middle" fill="#bf5af2" font-size="8">Blue-Green</text>
<rect x="456" y="945" width="56" height="16" rx="4" fill="#071525" stroke="#bf5af244" stroke-width="1"/>
<text x="484" y="956" text-anchor="middle" fill="#bf5af2" font-size="8">Canary</text>
<rect x="518" y="945" width="68" height="16" rx="4" fill="#071525" stroke="#bf5af244" stroke-width="1"/>
<text x="552" y="956" text-anchor="middle" fill="#bf5af2" font-size="8">Rollback</text>
<rect x="592" y="945" width="80" height="16" rx="4" fill="#071525" stroke="#bf5af244" stroke-width="1"/>
<text x="632" y="956" text-anchor="middle" fill="#bf5af2" font-size="8">A/B Deploy</text>
<text x="20" y="969" fill="#f4680099" font-size="8" font-weight="700" letter-spacing="2">Monitoring</text>
<rect x="20" y="983" width="62" height="16" rx="4" fill="#071525" stroke="#f4680044" stroke-width="1"/>
<text x="51" y="994" text-anchor="middle" fill="#f46800" font-size="8">Grafana</text>
<rect x="88" y="983" width="80" height="16" rx="4" fill="#071525" stroke="#f4680044" stroke-width="1"/>
<text x="128" y="994" text-anchor="middle" fill="#f46800" font-size="8">Prometheus</text>
<rect x="174" y="983" width="56" height="16" rx="4" fill="#071525" stroke="#f4680044" stroke-width="1"/>
<text x="202" y="994" text-anchor="middle" fill="#f46800" font-size="8">Zabbix</text>
<rect x="236" y="983" width="62" height="16" rx="4" fill="#071525" stroke="#f4680044" stroke-width="1"/>
<text x="267" y="994" text-anchor="middle" fill="#f46800" font-size="8">Netdata</text>
<rect x="304" y="983" width="74" height="16" rx="4" fill="#071525" stroke="#f4680044" stroke-width="1"/>
<text x="341" y="994" text-anchor="middle" fill="#f46800" font-size="8">ELK Stack</text>
<rect x="384" y="983" width="80" height="16" rx="4" fill="#071525" stroke="#f4680044" stroke-width="1"/>
<text x="424" y="994" text-anchor="middle" fill="#f46800" font-size="8">Wazuh SIEM</text>
<rect x="470" y="983" width="38" height="16" rx="4" fill="#071525" stroke="#f4680044" stroke-width="1"/>
<text x="489" y="994" text-anchor="middle" fill="#f46800" font-size="8">DLP</text>
<text x="20" y="1007" fill="#ffd60a99" font-size="8" font-weight="700" letter-spacing="2">IaC &amp; Orchestration</text>
<rect x="20" y="1021" width="62" height="16" rx="4" fill="#071525" stroke="#ffd60a44" stroke-width="1"/>
<text x="51" y="1032" text-anchor="middle" fill="#ffd60a" font-size="8">Ansible</text>
<rect x="88" y="1021" width="74" height="16" rx="4" fill="#071525" stroke="#ffd60a44" stroke-width="1"/>
<text x="125" y="1032" text-anchor="middle" fill="#ffd60a" font-size="8">Terraform</text>
<rect x="168" y="1021" width="80" height="16" rx="4" fill="#071525" stroke="#ffd60a44" stroke-width="1"/>
<text x="208" y="1032" text-anchor="middle" fill="#ffd60a" font-size="8">Kubernetes</text>
<rect x="254" y="1021" width="62" height="16" rx="4" fill="#071525" stroke="#ffd60a44" stroke-width="1"/>
<text x="285" y="1032" text-anchor="middle" fill="#ffd60a" font-size="8">Vagrant</text>
<rect x="322" y="1021" width="56" height="16" rx="4" fill="#071525" stroke="#ffd60a44" stroke-width="1"/>
<text x="350" y="1032" text-anchor="middle" fill="#ffd60a" font-size="8">Consul</text>
<text x="20" y="1045" fill="#00ff8899" font-size="8" font-weight="700" letter-spacing="2">Development</text>
<rect x="20" y="1059" width="56" height="16" rx="4" fill="#071525" stroke="#00ff8844" stroke-width="1"/>
<text x="48" y="1070" text-anchor="middle" fill="#00ff88" font-size="8">Python</text>
<rect x="82" y="1059" width="62" height="16" rx="4" fill="#071525" stroke="#00ff8844" stroke-width="1"/>
<text x="113" y="1070" text-anchor="middle" fill="#00ff88" font-size="8">Aiogram</text>
<rect x="150" y="1059" width="62" height="16" rx="4" fill="#071525" stroke="#00ff8844" stroke-width="1"/>
<text x="181" y="1070" text-anchor="middle" fill="#00ff88" font-size="8">Telebot</text>
<rect x="218" y="1059" width="68" height="16" rx="4" fill="#071525" stroke="#00ff8844" stroke-width="1"/>
<text x="252" y="1070" text-anchor="middle" fill="#00ff88" font-size="8">HTML/CSS</text>
<rect x="292" y="1059" width="80" height="16" rx="4" fill="#071525" stroke="#00ff8844" stroke-width="1"/>
<text x="332" y="1070" text-anchor="middle" fill="#00ff88" font-size="8">JavaScript</text>
<rect x="378" y="1059" width="80" height="16" rx="4" fill="#071525" stroke="#00ff8844" stroke-width="1"/>
<text x="418" y="1070" text-anchor="middle" fill="#00ff88" font-size="8">Git/GitHub</text>
<text x="20" y="1083" fill="#ff6b9d99" font-size="8" font-weight="700" letter-spacing="2">Network &amp; Security</text>
<rect x="20" y="1097" width="122" height="16" rx="4" fill="#071525" stroke="#ff6b9d44" stroke-width="1"/>
<text x="81" y="1108" text-anchor="middle" fill="#ff6b9d" font-size="8">Mikrotik RouterOS</text>
<rect x="148" y="1097" width="68" height="16" rx="4" fill="#071525" stroke="#ff6b9d44" stroke-width="1"/>
<text x="182" y="1108" text-anchor="middle" fill="#ff6b9d" font-size="8">iptables</text>
<rect x="222" y="1097" width="98" height="16" rx="4" fill="#071525" stroke="#ff6b9d44" stroke-width="1"/>
<text x="271" y="1108" text-anchor="middle" fill="#ff6b9d" font-size="8">Kerio Control</text>
<rect x="326" y="1097" width="38" height="16" rx="4" fill="#071525" stroke="#ff6b9d44" stroke-width="1"/>
<text x="345" y="1108" text-anchor="middle" fill="#ff6b9d" font-size="8">VPN</text>
<rect x="370" y="1097" width="44" height="16" rx="4" fill="#071525" stroke="#ff6b9d44" stroke-width="1"/>
<text x="392" y="1108" text-anchor="middle" fill="#ff6b9d" font-size="8">VLAN</text>
<rect x="420" y="1097" width="38" height="16" rx="4" fill="#071525" stroke="#ff6b9d44" stroke-width="1"/>
<text x="439" y="1108" text-anchor="middle" fill="#ff6b9d" font-size="8">DNS</text>
<rect x="464" y="1097" width="44" height="16" rx="4" fill="#071525" stroke="#ff6b9d44" stroke-width="1"/>
<text x="486" y="1108" text-anchor="middle" fill="#ff6b9d" font-size="8">DHCP</text>
<rect x="514" y="1097" width="56" height="16" rx="4" fill="#071525" stroke="#ff6b9d44" stroke-width="1"/>
<text x="542" y="1108" text-anchor="middle" fill="#ff6b9d" font-size="8">TCP/IP</text>
<line x1="20" y1="1121" x2="780" y2="1121" stroke="#00F7FF" stroke-width=".5" opacity=".15"/>
<text x="20" y="1139" fill="#00F7FF" font-size="9" font-weight="700" letter-spacing="3">STATS</text>
<line x1="51" y1="1136" x2="775" y2="1136" stroke="#00F7FF18" stroke-width=".8"/>

<rect x="20" y="1145" width="182" height="52" rx="8" fill="#071525" stroke="#00F7FF44" stroke-width="1"/>
<text class="st-num" x="111" y="1175" text-anchor="middle" fill="#00F7FF" font-size="22" font-weight="700">2</text>
<text x="111" y="1191" text-anchor="middle" fill="#00F7FF99" font-size="8" letter-spacing="2">YEARS EXP</text>
<rect x="212" y="1145" width="182" height="52" rx="8" fill="#071525" stroke="#00ff8844" stroke-width="1"/>
<text class="st-num" x="303" y="1175" text-anchor="middle" fill="#00ff88" font-size="22" font-weight="700">99%</text>
<text x="303" y="1191" text-anchor="middle" fill="#00ff8899" font-size="8" letter-spacing="2">UPTIME</text>
<rect x="404" y="1145" width="182" height="52" rx="8" fill="#071525" stroke="#00ff8844" stroke-width="1"/>
<text class="st-num" x="495" y="1175" text-anchor="middle" fill="#00ff88" font-size="22" font-weight="700">0ms</text>
<text x="495" y="1191" text-anchor="middle" fill="#00ff8899" font-size="8" letter-spacing="2">DOWNTIME</text>
<rect x="596" y="1145" width="182" height="52" rx="8" fill="#071525" stroke="#bf5af244" stroke-width="1"/>
<text class="st-num" x="687" y="1175" text-anchor="middle" fill="#bf5af2" font-size="22" font-weight="700">47</text>
<text x="687" y="1191" text-anchor="middle" fill="#bf5af299" font-size="8" letter-spacing="2">REPOS</text>
<line x1="20" y1="1209" x2="780" y2="1209" stroke="#00F7FF" stroke-width=".5" opacity=".15"/>
<text x="20" y="1227" fill="#00F7FF" font-size="9" font-weight="700" letter-spacing="3">CONTACT</text>
<line x1="65" y1="1224" x2="775" y2="1224" stroke="#00F7FF18" stroke-width=".8"/>

<rect x="20" y="1233" width="760" height="120" rx="8" fill="#071525" stroke="#00F7FF18" stroke-width="1"/>
<rect x="32" y="1245" width="24" height="20" rx="5" fill="#0a1520" stroke="#00F7FF44" stroke-width="1"/>
<text x="44" y="1259" text-anchor="middle" fill="#00F7FF" font-size="9" font-weight="700">@</text>
<text x="64" y="1253" fill="#3a6a8a" font-size="8" letter-spacing="1">EMAIL</text>
<text x="64" y="1264" fill="#00F7FF" font-size="10">shahzodqalandarov414@gmail.com</text>
<line x1="32" y1="1269" x2="772" y2="1269" stroke="#00F7FF18" stroke-width=".5"/>
<rect x="32" y="1273" width="24" height="20" rx="5" fill="#0a1520" stroke="#00bcd444" stroke-width="1"/>
<text x="44" y="1287" text-anchor="middle" fill="#00bcd4" font-size="9" font-weight="700">T</text>
<text x="64" y="1281" fill="#3a6a8a" font-size="8" letter-spacing="1">PHONE / TELEGRAM</text>
<text x="64" y="1292" fill="#00bcd4" font-size="10">+998 (94) 090-02-27</text>
<line x1="32" y1="1297" x2="772" y2="1297" stroke="#00F7FF18" stroke-width=".5"/>
<rect x="32" y="1301" width="24" height="20" rx="5" fill="#0a1520" stroke="#bf5af244" stroke-width="1"/>
<text x="44" y="1315" text-anchor="middle" fill="#bf5af2" font-size="9" font-weight="700">G</text>
<text x="64" y="1309" fill="#3a6a8a" font-size="8" letter-spacing="1">GITHUB</text>
<text x="64" y="1320" fill="#bf5af2" font-size="10">github.com/Salom0227</text>
<line x1="32" y1="1325" x2="772" y2="1325" stroke="#00F7FF18" stroke-width=".5"/>
<rect x="32" y="1329" width="24" height="20" rx="5" fill="#0a1520" stroke="#00ff8844" stroke-width="1"/>
<text x="44" y="1343" text-anchor="middle" fill="#00ff88" font-size="9" font-weight="700">UZ</text>
<text x="64" y="1337" fill="#3a6a8a" font-size="8" letter-spacing="1">LANGUAGES</text>
<text x="64" y="1348" fill="#00ff88" font-size="10">Uzbek (Native)  ·  English (B1)  ·  Russian (Elementary)</text>
<line x1="20" y1="1361" x2="780" y2="1361" stroke="#00F7FF" stroke-width=".5" opacity=".15"/>
<text x="20" y="1379" fill="#00F7FF" font-size="9" font-weight="700" letter-spacing="3">PHILOSOPHY</text>
<line x1="86" y1="1376" x2="775" y2="1376" stroke="#00F7FF18" stroke-width=".8"/>

<rect x="20" y="1385" width="4" height="44" rx="2" fill="#00F7FF" opacity=".6"/>
<text x="36" y="1401" fill="#7ab8d4" font-size="10" font-style="italic">Automate everything. Deploy without fear. Monitor everything.</text>
<text x="36" y="1417" fill="#7ab8d4" font-size="10" font-style="italic">Zero downtime is not a goal — it is a standard.</text>
<text x="36" y="1431" fill="#7ab8d4" font-size="10" font-style="italic">If it can break, pipeline it. If it scales, Kubernetes it.</text>
<line x1="20" y1="1445" x2="780" y2="1445" stroke="#00F7FF" stroke-width=".5" opacity=".15"/>
<rect x="20" y="1453" width="760" height="38" rx="8" fill="#071525" stroke="#00FF4133" stroke-width="1"/>
<text x="40" y="1469" fill="#c9ffdd" font-size="9" font-weight="700">National University of Uzbekistan  ·  Jizzakh Branch</text>
<text x="40" y="1483" fill="#1a6a2a" font-size="8">Bachelor: Information Security  ·  2021–2025</text>
<rect x="540" y="1459" width="130" height="18" rx="5" fill="#001a05" stroke="#00FF4144"/>
<text x="605" y="1472" text-anchor="middle" fill="#00FF41" font-size="9" font-weight="700">GRADUATED 2025</text>
<line x1="20" y1="1499" x2="780" y2="1499" stroke="#00F7FF" stroke-width=".5" opacity=".15"/>
<text x="400" y="1519" text-anchor="middle" fill="#1a4a6a" font-size="8" letter-spacing="3">SHOXZOD QALANDAROV  ·  DEVOPS ENGINEER  ·  TASHKENT, UZ</text>
</svg>
